:FULLY-SPECIFIED
:FORCE-ALL-JOINTS-BE-3DOF
:DEGREES
340
root 8.22718 16.039 -20.5453 10.9836 25.4662 4.84042
lfemur -11.4669 19.3913 -11.1865
ltibia 42.4011 -0 0
lfoot 0 0 0
ltoes 0 0 0
rfemur 0 0 0
rtibia 0 0 0
rfoot 3.08877 -18.8487 -0.399079
rtoes 9.61062 -0 0
lowerback -0.0532534 -1.83412 -2.02086
upperback 1.94648 -2.41089 -0.200679
thorax 2.10538 -1.23694 0.865341
lowerneck -5.27068 -8.93516 -0.444322
upperneck 0 0 0
head 0 0 0
lclavicle 0 0 0
lhumerus -47.901 -36.1897 109.708
lradius 0 0 0
lwrist 19.0338 0 0
lhand 6.43773 12.4087 0.0486129
lfingers 0 0 0
lthumb 31.7328 39.5978 0.025172
rclavicle 0 0 0
rhumerus 0 0 0
rradius 84.1916 -0 0
rwrist 2.77789 0 0
rhand 16.5561 -8.50909 1.52819
rfingers 0 0 0
rthumb 0 0 0
341
root 8.16522 16.0624 -20.3925 10.6496 23.9015 4.30549
lfemur -11.7553 19.2379 -10.6383
ltibia 43.9877 -0 0
lfoot 0 0 0
ltoes 0 0 0
rfemur 0 0 0
rtibia 0 0 0
rfoot 2.04936 -17.7368 -0.550569
rtoes 9.58576 -0 0
lowerback 0.0725992 -1.71822 -1.88491
upperback 1.94799 -2.26182 -0.0945677
thorax 2.03223 -1.16143 0.900694
lowerneck -5.39771 -8.6785 -0.410092
upperneck 0 0 0
head 0 0 0
lclavicle 0 0 0
lhumerus -47.6607 -35.4827 109.296
lradius 0 0 0
lwrist 18.8597 0 0
lhand 5.77431 12.1948 0.0670193
lfingers 0 0 0
lthumb 31.0981 39.482 0.034702
rclavicle 0 0 0
rhumerus 0 0 0
rradius 83.7276 -0 0
rwrist 2.77103 0 0
rhand 13.7703 -10.0405 2.11489
rfingers 0 0 0
rthumb 0 0 0
342
root 8.09917 16.0867 -20.2362 10.3035 22.17 3.73325
lfemur -12.0753 19.0716 -10.0323
ltibia 45.7401 -0 0
lfoot 0 0 0
ltoes 0 0 0
rfemur 0 0 0
rtibia 0 0 0
rfoot 0.898052 -16.5056 -0.694392
rtoes 9.55829 -0 0
lowerback 0.211924 -1.59054 -1.73447
upperback 1.94998 -2.09716 0.0226323
thorax 1.95148 -1.07797 0.939632
lowerneck -5.53773 -8.39492 -0.372976
upperneck 0 0 0
head 0 0 0
lclavicle 0 0 0
lhumerus -47.4049 -34.7001 108.848
lradius 0 0 0
lwrist 18.6675 0 0
lhand 5.04144 11.9583 0.0844702
lfingers 0 0 0
lthumb 30.397 39.354 0.0437368
rclavicle 0 0 0
rhumerus 0 0 0
rradius 83.215 -0 0
rwrist 2.76345 0 0
rhand 10.6749 -11.7637 2.67535
rfingers 0 0 0
rthumb 0 0 0
343
root 8.02955 16.1117 -20.0771 9.95583 20.302 3.13694
lfemur -12.4217 18.896 -9.37937
ltibia 47.6273 -0 0
lfoot 0 0 0
ltoes 0 0 0
rfemur 0 0 0
rtibia 0 0 0
rfoot -0.345004 -15.1768 -0.821544
rtoes 9.5287 -0 0
lowerback 0.362331 -1.45345 -1.57211
upperback 1.9525 -1.91985 0.148841
thorax 1.86459 -0.988032 0.981432
lowerneck -5.68821 -8.08942 -0.333819
upperneck 0 0 0
head 0 0 0
lclavicle 0 0 0
lhumerus -47.1403 -33.8555 108.375
lradius 0 0 0
lwrist 18.4605 0 0
lhand 4.25212 11.7034 0.0998788
lfingers 0 0 0
lthumb 29.6419 39.216 0.0517138
rclavicle 0 0 0
rhumerus 0 0 0
rradius 82.663 -0 0
rwrist 2.75529 0 0
rhand 7.3226 -13.6513 3.17368
rfingers 0 0 0
rthumb 0 0 0
344
root 7.95689 16.1371 -19.9156 9.61561 18.3278 2.52816
lfemur -12.7891 18.7149 -8.69007
ltibia 49.6183 -0 0
lfoot 0 0 0
ltoes 0 0 0
rfemur 0 0 0
rtibia 0 0 0
rfoot -1.65922 -13.7722 -0.924367
rtoes 9.4975 -0 0
lowerback 0.521413 -1.30929 -1.40046
upperback 1.95558 -1.73279 0.281979
thorax 1.773 -0.893081 1.02538
lowerneck -5.8466 -7.76703 -0.293419
upperneck 0 0 0
head 0 0 0
lclavicle 0 0 0
lhumerus -46.8729 -32.9626 107.887
lradius 0 0 0
lwrist 18.2422 0 0
lhand 3.41937 11.4343 0.112326
lfingers 0 0 0
lthumb 28.8453 39.0703 0.0581575
rclavicle 0 0 0
rhumerus 0 0 0
rradius 82.0807 -0 0
rwrist 2.74669 0 0
rhand 3.76869 -15.6715 3.57865
rfingers 0 0 0
rthumb 0 0 0
345
root 7.8817 16.1628 -19.7522 9.28989 16.2782 1.91694
lfemur -13.1717 18.5315 -7.97512
ltibia 51.6818 -0 0
lfoot 0 0 0
ltoes 0 0 0
rfemur 0 0 0
rtibia 0 0 0
rfoot -3.02362 -12.3143 -0.996887
rtoes 9.46515 -0 0
lowerback 0.686741 -1.16038 -1.22213
upperback 1.95923 -1.53893 0.419968
thorax 1.67815 -0.794595 1.07077
lowerneck -6.0104 -7.43278 -0.252528
upperneck 0 0 0
head 0 0 0
lclavicle 0 0 0
lhumerus -46.6081 -32.0352 107.391
lradius 0 0 0
lwrist 18.0158 0 0
lhand 2.5562 11.1552 0.121097
lfingers 0 0 0
lthumb 28.0197 38.9193 0.0626982
rclavicle 0 0 0
rhumerus 0 0 0
rradius 81.4771 -0 0
rwrist 2.73776 0 0
rhand 0.0710613 -17.7885 3.86535
rfingers 0 0 0
rthumb 0 0 0
346
root 7.80452 16.1887 -19.5875 8.98413 14.1841 1.31193
lfemur -13.5642 18.3492 -7.24526
ltibia 53.7868 -0 0
lfoot 0 0 0
ltoes 0 0 0
rfemur 0 0 0
rtibia 0 0 0
rfoot -4.41691 -10.8257 -1.03506
rtoes 9.43216 -0 0
lowerback 0.855861 -1.00901 -1.03979
upperback 1.96344 -1.34117 0.560732
thorax 1.58147 -0.694052 1.1169
lowerneck -6.17712 -7.09168 -0.211837
upperneck 0 0 0
head 0 0 0
lclavicle 0 0 0
lhumerus -46.3503 -31.0872 106.895
lradius 0 0 0
lwrist 17.785 0 0
lhand 1.67565 10.8704 0.125712
lfingers 0 0 0
lthumb 27.1774 38.7651 0.065087
rclavicle 0 0 0
rhumerus 0 0 0
rradius 80.8615 -0 0
rwrist 2.72866 0 0
rhand -3.71018 -19.9632 4.01661
rfingers 0 0 0
rthumb 0 0 0
